<svg id="visual" viewBox="0 0 960 500" width="960" height="500" xmlns="http://www.w3.org/2000/svg" xmlns:xlink="http://www.w3.org/1999/xlink" version="1.1"><rect x="0" y="0" width="960" height="500" fill="#2b73dc"></rect><path d="M0 439L26.7 426.3C53.3 413.7 106.7 388.3 160 392.7C213.3 397 266.7 431 320 385.5C373.3 340 426.7 215 480 194.2C533.3 173.3 586.7 256.7 640 288C693.3 319.3 746.7 298.7 800 259.5C853.3 220.3 906.7 162.7 933.3 133.8L960 105L960 501L933.3 501C906.7 501 853.3 501 800 501C746.7 501 693.3 501 640 501C586.7 501 533.3 501 480 501C426.7 501 373.3 501 320 501C266.7 501 213.3 501 160 501C106.7 501 53.3 501 26.7 501L0 501Z" fill="#fff" stroke-linecap="round" stroke-linejoin="miter"></path></svg>