<svg id="visual" viewBox="0 0 900 300" width="900" height="300" xmlns="http://www.w3.org/2000/svg" xmlns:xlink="http://www.w3.org/1999/xlink" version="1.1"><rect x="0" y="0" width="900" height="300" fill="#fff"></rect><path d="M0 232L30 222.8C60 213.7 120 195.3 180 194.2C240 193 300 209 360 192.5C420 176 480 127 540 131.3C600 135.7 660 193.3 720 180.3C780 167.3 840 83.7 870 41.8L900 0L900 301L870 301C840 301 780 301 720 301C660 301 600 301 540 301C480 301 420 301 360 301C300 301 240 301 180 301C120 301 60 301 30 301L0 301Z" fill="#2B73DC" stroke-linecap="round" stroke-linejoin="miter"></path></svg>